<?xml version="1.0" encoding="UTF-8" standalone="no"?>
<!DOCTYPE svg PUBLIC "-//W3C//DTD SVG 1.1//EN" "http://www.w3.org/Graphics/SVG/1.1/DTD/svg11.dtd">
<svg width="100%" height="100%" viewBox="0 0 64 64" version="1.1" xmlns="http://www.w3.org/2000/svg" xmlns:xlink="http://www.w3.org/1999/xlink" xml:space="preserve" xmlns:serif="http://www.serif.com/" style="fill-rule:evenodd;clip-rule:evenodd;stroke-linejoin:round;stroke-miterlimit:2;">
    <g>
        <rect x="1.5" y="1.5" width="13" height="13" style="fill:rgb(173,173,173);"/>
        <rect x="17.5" y="1.5" width="13" height="13" style="fill:rgb(173,173,173);"/>
        <rect x="33.5" y="1.5" width="13" height="13" style="fill:rgb(220,63,201);"/>
        <rect x="49.5" y="1.5" width="13" height="13" style="fill:rgb(173,173,173);"/>
        <rect x="1.5" y="17.5" width="13" height="13" style="fill:rgb(41,181,213);"/>
        <rect x="17.5" y="17.5" width="13" height="13" style="fill:rgb(41,181,213);"/>
        <rect x="33.5" y="17.5" width="13" height="13" style="fill:rgb(220,63,201);"/>
        <rect x="49.5" y="17.5" width="13" height="13" style="fill:rgb(41,181,213);"/>
        <rect x="1.5" y="33.5" width="13" height="13" style="fill:rgb(173,173,173);"/>
        <rect x="17.5" y="33.5" width="13" height="13" style="fill:rgb(173,173,173);"/>
        <rect x="33.5" y="33.5" width="13" height="13" style="fill:rgb(220,63,201);"/>
        <rect x="49.5" y="33.5" width="13" height="13" style="fill:rgb(173,173,173);"/>
        <rect x="1.5" y="49.5" width="13" height="13" style="fill:rgb(173,173,173);"/>
        <rect x="17.5" y="49.5" width="13" height="13" style="fill:rgb(173,173,173);"/>
        <rect x="33.5" y="49.5" width="13" height="13" style="fill:rgb(220,63,201);"/>
        <rect x="49.5" y="49.5" width="13" height="13" style="fill:rgb(173,173,173);"/>
    </g>
</svg>
